<svg version="1.1" xmlns="http://www.w3.org/2000/svg" xmlns:xlink="http://www.w3.org/1999/xlink" width="519" height="265"><defs><clipPath id="WEpgSuryDEtw"><path fill="none" stroke="none" d=" M 0 0 L 519 0 L 519 265 L 0 265 L 0 0 Z"/></clipPath></defs><g transform="scale(1,1)" clip-path="url(#WEpgSuryDEtw)"><g><path fill="none" stroke="rgb(0,0,0)" paint-order="fill stroke markers" d=" M 210.5 2.5 L 210.5 265.5" stroke-opacity="1" stroke-miterlimit="10"/><path fill="none" stroke="rgb(0,0,0)" paint-order="fill stroke markers" d=" M 210.5 1.5 L 206.5 5.5" stroke-opacity="1" stroke-miterlimit="10"/><path fill="none" stroke="rgb(0,0,0)" paint-order="fill stroke markers" d=" M 210.5 1.5 L 214.5 5.5" stroke-opacity="1" stroke-miterlimit="10"/><path fill="none" stroke="rgb(0,0,0)" paint-order="fill stroke markers" d=" M 0.5 156.5 L 517.5 156.5" stroke-opacity="1" stroke-miterlimit="10"/><path fill="none" stroke="rgb(0,0,0)" paint-order="fill stroke markers" d=" M 518.5 156.5 L 514.5 152.5" stroke-opacity="1" stroke-miterlimit="10"/><path fill="none" stroke="rgb(0,0,0)" paint-order="fill stroke markers" d=" M 518.5 156.5 L 514.5 160.5" stroke-opacity="1" stroke-miterlimit="10"/><path fill="none" stroke="rgb(0,0,0)" paint-order="fill stroke markers" d=" M 11.5 156.5 L 11.5 159.5" stroke-opacity="1" stroke-miterlimit="10"/><path fill="none" stroke="rgb(0,0,0)" paint-order="fill stroke markers" d=" M 61.5 156.5 L 61.5 159.5" stroke-opacity="1" stroke-miterlimit="10"/><path fill="none" stroke="rgb(0,0,0)" paint-order="fill stroke markers" d=" M 110.5 156.5 L 110.5 159.5" stroke-opacity="1" stroke-miterlimit="10"/><path fill="none" stroke="rgb(0,0,0)" paint-order="fill stroke markers" d=" M 160.5 156.5 L 160.5 159.5" stroke-opacity="1" stroke-miterlimit="10"/><path fill="none" stroke="rgb(0,0,0)" paint-order="fill stroke markers" d=" M 260.5 156.5 L 260.5 159.5" stroke-opacity="1" stroke-miterlimit="10"/><path fill="none" stroke="rgb(0,0,0)" paint-order="fill stroke markers" d=" M 310.5 156.5 L 310.5 159.5" stroke-opacity="1" stroke-miterlimit="10"/><path fill="none" stroke="rgb(0,0,0)" paint-order="fill stroke markers" d=" M 360.5 156.5 L 360.5 159.5" stroke-opacity="1" stroke-miterlimit="10"/><path fill="none" stroke="rgb(0,0,0)" paint-order="fill stroke markers" d=" M 410.5 156.5 L 410.5 159.5" stroke-opacity="1" stroke-miterlimit="10"/><path fill="none" stroke="rgb(0,0,0)" paint-order="fill stroke markers" d=" M 460.5 156.5 L 460.5 159.5" stroke-opacity="1" stroke-miterlimit="10"/><path fill="none" stroke="rgb(0,0,0)" paint-order="fill stroke markers" d=" M 207.5 256.5 L 210.5 256.5" stroke-opacity="1" stroke-miterlimit="10"/><path fill="none" stroke="rgb(0,0,0)" paint-order="fill stroke markers" d=" M 207.5 206.5 L 210.5 206.5" stroke-opacity="1" stroke-miterlimit="10"/><path fill="none" stroke="rgb(0,0,0)" paint-order="fill stroke markers" d=" M 207.5 107.5 L 210.5 107.5" stroke-opacity="1" stroke-miterlimit="10"/><path fill="none" stroke="rgb(0,0,0)" paint-order="fill stroke markers" d=" M 207.5 57.5 L 210.5 57.5" stroke-opacity="1" stroke-miterlimit="10"/><path fill="rgb(0,100,0)" stroke="none" paint-order="stroke fill markers" d=" M 224.74399707752139 171.5293683390943 C 229.59041819017042 166.9449159352371 231.8319348971453 160.2458419378416 230.72047016958635 153.66787510881647 C 229.6090054420274 147.08990827979136 225.29091058017733 141.49919756161856 219.2072935465757 138.76156989649783 L 210.99999999999974 156.99999999999997 Z" fill-opacity="0.09803921568627451"/><path fill="none" stroke="rgb(0,100,0)" paint-order="fill stroke markers" d=" M 224.74399707752139 171.5293683390943 C 229.59041819017042 166.9449159352371 231.8319348971453 160.2458419378416 230.72047016958635 153.66787510881647 C 229.6090054420274 147.08990827979136 225.29091058017733 141.49919756161856 219.2072935465757 138.76156989649783 L 210.99999999999974 156.99999999999997 Z" stroke-opacity="0.6980392156862745" stroke-linecap="round" stroke-linejoin="round" stroke-miterlimit="10" stroke-width="2.5"/><g transform="scale(21,21)"><g transform="translate(11.19047619047619,7.001983571428571)"><path fill="rgb(0,100,0)" stroke="none" paint-order="stroke fill markers" d=" M 0.47700000000000004 -0.23600000000000002 L 0.47700000000000004 -0.23600000000000002 L 0.47700000000000004 -0.17400000000000002 Q 0.542 -0.255 0.5750000000000001 -0.372 Q 0.585 -0.392 0.59 -0.393 Q 0.602 -0.393 0.602 -0.383 Q 0.602 -0.366 0.579 -0.307 Q 0.545 -0.221 0.487 -0.148 Q 0.47700000000000004 -0.128 0.47700000000000004 -0.113 Q 0.47700000000000004 -0.011 0.508 -0.011 Q 0.539 -0.011 0.558 -0.046 Q 0.561 -0.052000000000000005 0.5640000000000001 -0.06 Q 0.5680000000000001 -0.07 0.577 -0.07 Q 0.589 -0.07 0.589 -0.06 Q 0.589 -0.041 0.5640000000000001 -0.015 Q 0.538 0.011 0.505 0.011 Q 0.442 0.011 0.418 -0.058 Q 0.41600000000000004 -0.065 0.41400000000000003 -0.073 Q 0.309 0.011 0.203 0.011 Q 0.109 0.011 0.065 -0.064 Q 0.041 -0.105 0.041 -0.158 Q 0.041 -0.26 0.11900000000000001 -0.34700000000000003 Q 0.196 -0.433 0.293 -0.441 Q 0.302 -0.442 0.31 -0.442 Q 0.394 -0.442 0.44 -0.376 Q 0.44 -0.375 0.441 -0.375 Q 0.47700000000000004 -0.322 0.47700000000000004 -0.23600000000000002 M 0.41000000000000003 -0.099 L 0.41000000000000003 -0.099 Q 0.40800000000000003 -0.116 0.40800000000000003 -0.211 Q 0.40800000000000003 -0.334 0.381 -0.379 Q 0.369 -0.399 0.352 -0.40900000000000003 L 0.35100000000000003 -0.41000000000000003 L 0.35100000000000003 -0.41000000000000003 L 0.35000000000000003 -0.41000000000000003 Q 0.332 -0.42 0.309 -0.42 Q 0.23800000000000002 -0.42 0.181 -0.34 L 0.17300000000000001 -0.328 Q 0.137 -0.27 0.12 -0.166 Q 0.115 -0.138 0.115 -0.12 Q 0.115 -0.036000000000000004 0.17400000000000002 -0.016 Q 0.188 -0.011 0.20500000000000002 -0.011 Q 0.309 -0.011 0.41000000000000003 -0.099 Z"/></g></g><path fill="rgb(255,102,153)" stroke="none" paint-order="stroke fill markers" d=" M 238.48799415504305 186.05873667818864 C 243.94116597081563 180.90033090651187 247.83280367449362 174.31158012527436 249.71799220542528 167.04574932897526 L 210.99999999999974 156.99999999999997 Z" fill-opacity="0.09803921568627451"/><path fill="none" stroke="rgb(255,102,153)" paint-order="fill stroke markers" d=" M 238.48799415504305 186.05873667818864 C 243.94116597081563 180.90033090651187 247.83280367449362 174.31158012527436 249.71799220542528 167.04574932897526 L 210.99999999999974 156.99999999999997 Z" stroke-opacity="0.6980392156862745" stroke-linecap="round" stroke-linejoin="round" stroke-miterlimit="10" stroke-width="2.5"/><g transform="scale(21,21)"><g transform="translate(11.80952380952381,9.075397380952381)"><path fill="rgb(255,102,153)" stroke="none" paint-order="stroke fill markers" d=" M 0.028 0.169 L 0.18 -0.437 Q 0.209 -0.551 0.292 -0.631 Q 0.37 -0.705 0.456 -0.705 Q 0.539 -0.705 0.5750000000000001 -0.639 Q 0.59 -0.611 0.59 -0.577 Q 0.59 -0.502 0.528 -0.439 Q 0.507 -0.418 0.482 -0.403 Q 0.549 -0.357 0.549 -0.264 Q 0.549 -0.161 0.46900000000000003 -0.076 Q 0.392 0.005 0.296 0.012 L 0.28300000000000003 0.012 Q 0.186 0.012 0.14100000000000001 -0.063 Q 0.129 -0.083 0.123 -0.105 L 0.048 0.188 L 0.047 0.19 Q 0.043000000000000003 0.194 0.037 0.194 Q 0.025 0.194 0.025 0.184 Q 0.025 0.181 0.028 0.169 M 0.328 -0.401 Q 0.34500000000000003 -0.395 0.371 -0.395 Q 0.401 -0.395 0.419 -0.403 Q 0.406 -0.40900000000000003 0.379 -0.40900000000000003 Q 0.34400000000000003 -0.40900000000000003 0.328 -0.401 M 0.45 -0.421 Q 0.511 -0.467 0.525 -0.577 L 0.525 -0.578 L 0.525 -0.58 Q 0.527 -0.594 0.527 -0.602 Q 0.527 -0.673 0.46900000000000003 -0.682 Q 0.462 -0.683 0.455 -0.683 Q 0.372 -0.683 0.299 -0.606 Q 0.23 -0.534 0.2 -0.41600000000000004 L 0.154 -0.231 Q 0.14100000000000001 -0.179 0.14100000000000001 -0.156 Q 0.14100000000000001 -0.074 0.2 -0.034 Q 0.234 -0.01 0.281 -0.01 Q 0.359 -0.01 0.41500000000000004 -0.094 Q 0.422 -0.10300000000000001 0.427 -0.113 Q 0.462 -0.179 0.47400000000000003 -0.274 Q 0.47600000000000003 -0.291 0.47600000000000003 -0.302 Q 0.47600000000000003 -0.355 0.446 -0.386 Q 0.41400000000000003 -0.373 0.371 -0.373 Q 0.303 -0.373 0.303 -0.399 Q 0.303 -0.431 0.381 -0.431 Q 0.422 -0.431 0.45 -0.421 Z"/></g></g><path fill="none" stroke="rgb(102,204,255)" paint-order="fill stroke markers" d=" M -5 59.8 L 462.1111111111107 270" stroke-opacity="0.6980392156862745" stroke-linecap="round" stroke-linejoin="round" stroke-miterlimit="10" stroke-width="1.5"/><g transform="scale(21,21)"><g transform="translate(3,3.8373021428571428)"><path fill="rgb(102,204,255)" stroke="none" paint-order="stroke fill markers" d=" M 0.556 -0.355 L 0.542 -0.299 Q 0.534 -0.267 0.517 -0.198 Q 0.501 -0.131 0.501 -0.107 Q 0.501 -0.028 0.5740000000000001 -0.028 Q 0.634 -0.028 0.677 -0.10400000000000001 Q 0.6980000000000001 -0.14100000000000001 0.7155 -0.1975 Q 0.733 -0.254 0.733 -0.269 Q 0.733 -0.303 0.683 -0.332 Q 0.653 -0.34900000000000003 0.653 -0.377 Q 0.653 -0.404 0.677 -0.4285 Q 0.7010000000000001 -0.453 0.729 -0.453 Q 0.734 -0.453 0.741 -0.451 Q 0.748 -0.449 0.7625000000000001 -0.442 Q 0.777 -0.435 0.787 -0.41400000000000003 Q 0.797 -0.393 0.797 -0.362 Q 0.797 -0.32 0.776 -0.241 Q 0.755 -0.162 0.726 -0.109 Q 0.665 0.008 0.5670000000000001 0.008 Q 0.461 0.008 0.417 -0.048 Q 0.371 0.008 0.305 0.008 Q 0.256 0.008 0.2185 -0.002 Q 0.181 -0.012 0.152 -0.044 Q 0.123 -0.076 0.123 -0.128 Q 0.123 -0.182 0.177 -0.316 Q 0.199 -0.373 0.199 -0.395 Q 0.199 -0.41600000000000004 0.182 -0.41600000000000004 Q 0.17300000000000001 -0.41600000000000004 0.163 -0.41200000000000003 Q 0.153 -0.40800000000000003 0.1375 -0.3975 Q 0.122 -0.387 0.1065 -0.3605 Q 0.091 -0.334 0.079 -0.295 Q 0.075 -0.28200000000000003 0.056 -0.28200000000000003 Q 0.032 -0.28200000000000003 0.032 -0.296 Q 0.032 -0.306 0.042 -0.3295 Q 0.052000000000000005 -0.353 0.07 -0.3815 Q 0.088 -0.41000000000000003 0.11950000000000001 -0.431 Q 0.151 -0.452 0.188 -0.452 Q 0.233 -0.452 0.267 -0.4275 Q 0.301 -0.403 0.301 -0.362 Q 0.301 -0.34600000000000003 0.28300000000000003 -0.301 Q 0.231 -0.168 0.231 -0.11 Q 0.231 -0.028 0.312 -0.028 Q 0.34900000000000003 -0.028 0.373 -0.0555 Q 0.397 -0.083 0.397 -0.094 L 0.396 -0.10200000000000001 Q 0.394 -0.11 0.394 -0.126 Q 0.394 -0.152 0.402 -0.187 Q 0.43 -0.304 0.453 -0.391 Q 0.462 -0.421 0.4815 -0.4325 Q 0.501 -0.444 0.519 -0.444 Q 0.541 -0.444 0.5535 -0.431 Q 0.5660000000000001 -0.418 0.5660000000000001 -0.4 Q 0.5660000000000001 -0.392 0.556 -0.355 Z"/></g><g transform="translate(3.831479,3.9873021428571427) scale(0.7,0.7)"><path fill="rgb(102,204,255)" stroke="none" paint-order="stroke fill markers" d=" M 0.354 -0.623 L 0.354 -0.047 L 0.494 -0.047 L 0.494 0 Q 0.45 -0.003 0.295 -0.003 Q 0.14 -0.003 0.096 0 L 0.096 -0.047 L 0.23500000000000001 -0.047 L 0.23500000000000001 -0.5640000000000001 Q 0.17300000000000001 -0.544 0.105 -0.544 L 0.085 -0.544 L 0.085 -0.591 L 0.105 -0.591 Q 0.229 -0.591 0.306 -0.648 Q 0.315 -0.655 0.328 -0.655 Q 0.34600000000000003 -0.655 0.35000000000000003 -0.6485 Q 0.354 -0.642 0.354 -0.623 Z"/></g><g transform="translate(4.456199788888889,3.8373021428571428)"><path fill="rgb(102,204,255)" stroke="none" paint-order="stroke fill markers" d=" M 0.192 -0.25 Q 0.192 -0.217 0.162 -0.202 Q 0.151 -0.197 0.139 -0.197 Q 0.106 -0.197 0.091 -0.227 Q 0.08600000000000001 -0.23800000000000002 0.08600000000000001 -0.25 Q 0.08600000000000001 -0.28300000000000003 0.116 -0.298 Q 0.127 -0.303 0.139 -0.303 Q 0.17200000000000001 -0.303 0.187 -0.273 Q 0.192 -0.262 0.192 -0.25 Z"/></g><g transform="translate(4.956201677777778,3.8373021428571428)"><path fill="rgb(102,204,255)" stroke="none" paint-order="stroke fill markers" d=" M 0.536 -0.401 Q 0.516 -0.41600000000000004 0.488 -0.41600000000000004 Q 0.461 -0.41600000000000004 0.4375 -0.392 Q 0.41400000000000003 -0.368 0.403 -0.325 Q 0.4 -0.316 0.385 -0.257 Q 0.37 -0.198 0.368 -0.189 Q 0.34600000000000003 -0.099 0.34600000000000003 -0.078 Q 0.34600000000000003 -0.028 0.402 -0.028 Q 0.44 -0.028 0.482 -0.0575 Q 0.524 -0.08700000000000001 0.544 -0.149 Q 0.548 -0.162 0.5670000000000001 -0.162 Q 0.591 -0.162 0.591 -0.148 Q 0.591 -0.134 0.578 -0.1095 Q 0.5650000000000001 -0.085 0.542 -0.058 Q 0.519 -0.031 0.48 -0.0115 Q 0.441 0.008 0.397 0.008 Q 0.295 0.008 0.259 -0.053 Q 0.215 0.008 0.152 0.008 Q 0.105 0.008 0.07150000000000001 -0.0165 Q 0.038 -0.041 0.038 -0.08 Q 0.038 -0.115 0.06 -0.1365 Q 0.082 -0.158 0.11 -0.158 Q 0.133 -0.158 0.1465 -0.14400000000000002 Q 0.16 -0.13 0.16 -0.112 Q 0.16 -0.091 0.1455 -0.07050000000000001 Q 0.131 -0.05 0.106 -0.043000000000000003 Q 0.126 -0.028 0.154 -0.028 Q 0.181 -0.028 0.20450000000000002 -0.051500000000000004 Q 0.228 -0.075 0.23900000000000002 -0.11900000000000001 L 0.273 -0.256 Q 0.296 -0.34800000000000003 0.296 -0.366 Q 0.296 -0.41600000000000004 0.24 -0.41600000000000004 Q 0.202 -0.41600000000000004 0.16 -0.3865 Q 0.11800000000000001 -0.357 0.098 -0.295 Q 0.094 -0.28200000000000003 0.075 -0.28200000000000003 Q 0.051000000000000004 -0.28200000000000003 0.051000000000000004 -0.296 Q 0.051000000000000004 -0.31 0.064 -0.3345 Q 0.077 -0.359 0.1 -0.386 Q 0.123 -0.41300000000000003 0.162 -0.4325 Q 0.201 -0.452 0.245 -0.452 Q 0.34700000000000003 -0.452 0.383 -0.391 Q 0.427 -0.452 0.49 -0.452 Q 0.537 -0.452 0.5705 -0.4275 Q 0.604 -0.403 0.604 -0.364 Q 0.604 -0.329 0.582 -0.3075 Q 0.56 -0.28600000000000003 0.532 -0.28600000000000003 Q 0.509 -0.28600000000000003 0.4955 -0.3 Q 0.482 -0.314 0.482 -0.332 Q 0.482 -0.353 0.4965 -0.3735 Q 0.511 -0.394 0.536 -0.401 Z"/></g><g transform="translate(5.837451566666667,3.8373021428571428)"><path fill="rgb(102,204,255)" stroke="none" paint-order="stroke fill markers" d=" M 0.40900000000000003 -0.23 L 0.40900000000000003 0.05 Q 0.40900000000000003 0.082 0.389 0.083 Q 0.369 0.083 0.369 0.05 L 0.369 -0.23 L 0.089 -0.23 Q 0.057 -0.23 0.056 -0.25 Q 0.056 -0.27 0.089 -0.27 L 0.369 -0.27 L 0.369 -0.55 Q 0.369 -0.582 0.389 -0.583 Q 0.40900000000000003 -0.583 0.40900000000000003 -0.55 L 0.40900000000000003 -0.27 L 0.6880000000000001 -0.27 Q 0.72 -0.27 0.721 -0.25 Q 0.721 -0.23 0.6880000000000001 -0.23 L 0.40900000000000003 -0.23 Z"/></g><g transform="translate(6.837455455555556,3.8373021428571428)"><path fill="rgb(102,204,255)" stroke="none" paint-order="stroke fill markers" d=" M 0.23900000000000002 -0.683 L 0.165 -0.382 Q 0.223 -0.442 0.28200000000000003 -0.442 Q 0.357 -0.442 0.394 -0.373 Q 0.41500000000000004 -0.333 0.41500000000000004 -0.28200000000000003 Q 0.41500000000000004 -0.176 0.341 -0.084 Q 0.272 0.001 0.189 0.01 Q 0.181 0.011 0.17400000000000002 0.011 Q 0.10200000000000001 0.011 0.067 -0.056 Q 0.047 -0.094 0.047 -0.146 Q 0.047 -0.18 0.063 -0.247 L 0.145 -0.5730000000000001 Q 0.159 -0.632 0.159 -0.635 Q 0.159 -0.646 0.145 -0.649 L 0.145 -0.649 Q 0.133 -0.652 0.109 -0.652 Q 0.08700000000000001 -0.652 0.085 -0.664 Q 0.085 -0.681 0.10400000000000001 -0.684 L 0.226 -0.6940000000000001 Q 0.23900000000000002 -0.6940000000000001 0.23900000000000002 -0.683 M 0.145 -0.305 L 0.123 -0.213 Q 0.107 -0.15 0.107 -0.112 Q 0.107 -0.026000000000000002 0.159 -0.013000000000000001 Q 0.166 -0.011 0.17400000000000002 -0.011 Q 0.227 -0.011 0.273 -0.081 Q 0.28300000000000003 -0.096 0.292 -0.114 Q 0.319 -0.171 0.337 -0.268 Q 0.343 -0.303 0.343 -0.326 Q 0.343 -0.406 0.294 -0.418 L 0.293 -0.419 Q 0.28700000000000003 -0.42 0.28 -0.42 Q 0.22 -0.42 0.16 -0.34 Q 0.152 -0.33 0.145 -0.305 Z"/></g><g transform="translate(7.544401066666667,3.8373021428571428)"><path fill="rgb(102,204,255)" stroke="none" paint-order="stroke fill markers" d=" M 0.687 -0.327 L 0.09 -0.327 Q 0.058 -0.327 0.056 -0.34700000000000003 Q 0.056 -0.367 0.089 -0.367 L 0.6880000000000001 -0.367 Q 0.72 -0.367 0.721 -0.34700000000000003 Q 0.721 -0.327 0.687 -0.327 M 0.6880000000000001 -0.133 L 0.089 -0.133 Q 0.057 -0.133 0.056 -0.153 Q 0.056 -0.17300000000000001 0.09 -0.17300000000000001 L 0.687 -0.17300000000000001 Q 0.719 -0.17300000000000001 0.721 -0.153 Q 0.721 -0.133 0.6880000000000001 -0.133 Z"/></g><g transform="translate(8.599960677777778,3.8373021428571428)"><path fill="rgb(102,204,255)" stroke="none" paint-order="stroke fill markers" d=" M 0.46 -0.32 Q 0.46 -0.17400000000000002 0.423 -0.094 Q 0.364 0.018000000000000002 0.249 0.022 Q 0.158 0.022 0.10300000000000001 -0.05 Q 0.092 -0.063 0.084 -0.079 Q 0.039 -0.162 0.039 -0.32 Q 0.039 -0.467 0.076 -0.547 Q 0.126 -0.659 0.23800000000000002 -0.666 L 0.25 -0.666 Q 0.339 -0.666 0.395 -0.595 L 0.395 -0.594 Q 0.40900000000000003 -0.5760000000000001 0.42 -0.554 Q 0.46 -0.46900000000000003 0.46 -0.32 M 0.249 0 L 0.249 0 Q 0.312 0 0.34600000000000003 -0.061 Q 0.36 -0.088 0.366 -0.125 Q 0.377 -0.189 0.377 -0.332 Q 0.377 -0.47100000000000003 0.367 -0.527 Q 0.34900000000000003 -0.622 0.275 -0.641 Q 0.262 -0.644 0.249 -0.644 Q 0.179 -0.644 0.147 -0.5740000000000001 Q 0.136 -0.55 0.13 -0.516 Q 0.122 -0.462 0.122 -0.332 Q 0.122 -0.181 0.133 -0.121 Q 0.151 -0.025 0.221 -0.004 Q 0.23500000000000001 0 0.249 0 Z"/></g></g><path fill="none" stroke="rgb(128,128,128)" paint-order="fill stroke markers" d=" M 233.49999999999972 107.00000000000003 L 303.49999999999955 180.99999999999994" stroke-opacity="0.6980392156862745" stroke-linejoin="round" stroke-miterlimit="10" stroke-width="1.5" stroke-dasharray="9.5,8"/><path fill="none" stroke="rgb(128,128,128)" paint-order="fill stroke markers" d=" M 303.49999999999955 180.99999999999994 L 280.9999999999996 230.9999999999999" stroke-opacity="0.6980392156862745" stroke-linejoin="round" stroke-miterlimit="10" stroke-width="1.5" stroke-dasharray="9.5,8"/><path fill="none" stroke="rgb(255,153,0)" paint-order="fill stroke markers" d=" M 210.99999999999974 156.99999999999997 L 226.52380048541016 122.50266558797684" stroke-opacity="0.6980392156862745" stroke-linecap="round" stroke-linejoin="round" stroke-miterlimit="10" stroke-width="2.5"/><path fill="rgb(255,153,0)" stroke="none" paint-order="stroke fill markers" fill-rule="evenodd" d=" M 233.49999999999972 107.00000000000003 L 230.39946688240437 124.24671546662422 L 222.64813408841596 120.75861570932945 Z" fill-opacity="0.6980392156862745"/><g transform="scale(21,21)"><g transform="translate(11,4.444445)"><path fill="rgb(255,153,0)" stroke="none" paint-order="stroke fill markers" d=" M 0.556 -0.355 L 0.542 -0.299 Q 0.534 -0.267 0.517 -0.198 Q 0.501 -0.131 0.501 -0.107 Q 0.501 -0.028 0.5740000000000001 -0.028 Q 0.634 -0.028 0.677 -0.10400000000000001 Q 0.6980000000000001 -0.14100000000000001 0.7155 -0.1975 Q 0.733 -0.254 0.733 -0.269 Q 0.733 -0.303 0.683 -0.332 Q 0.653 -0.34900000000000003 0.653 -0.377 Q 0.653 -0.404 0.677 -0.4285 Q 0.7010000000000001 -0.453 0.729 -0.453 Q 0.734 -0.453 0.741 -0.451 Q 0.748 -0.449 0.7625000000000001 -0.442 Q 0.777 -0.435 0.787 -0.41400000000000003 Q 0.797 -0.393 0.797 -0.362 Q 0.797 -0.32 0.776 -0.241 Q 0.755 -0.162 0.726 -0.109 Q 0.665 0.008 0.5670000000000001 0.008 Q 0.461 0.008 0.417 -0.048 Q 0.371 0.008 0.305 0.008 Q 0.256 0.008 0.2185 -0.002 Q 0.181 -0.012 0.152 -0.044 Q 0.123 -0.076 0.123 -0.128 Q 0.123 -0.182 0.177 -0.316 Q 0.199 -0.373 0.199 -0.395 Q 0.199 -0.41600000000000004 0.182 -0.41600000000000004 Q 0.17300000000000001 -0.41600000000000004 0.163 -0.41200000000000003 Q 0.153 -0.40800000000000003 0.1375 -0.3975 Q 0.122 -0.387 0.1065 -0.3605 Q 0.091 -0.334 0.079 -0.295 Q 0.075 -0.28200000000000003 0.056 -0.28200000000000003 Q 0.032 -0.28200000000000003 0.032 -0.296 Q 0.032 -0.306 0.042 -0.3295 Q 0.052000000000000005 -0.353 0.07 -0.3815 Q 0.088 -0.41000000000000003 0.11950000000000001 -0.431 Q 0.151 -0.452 0.188 -0.452 Q 0.233 -0.452 0.267 -0.4275 Q 0.301 -0.403 0.301 -0.362 Q 0.301 -0.34600000000000003 0.28300000000000003 -0.301 Q 0.231 -0.168 0.231 -0.11 Q 0.231 -0.028 0.312 -0.028 Q 0.34900000000000003 -0.028 0.373 -0.0555 Q 0.397 -0.083 0.397 -0.094 L 0.396 -0.10200000000000001 Q 0.394 -0.11 0.394 -0.126 Q 0.394 -0.152 0.402 -0.187 Q 0.43 -0.304 0.453 -0.391 Q 0.462 -0.421 0.4815 -0.4325 Q 0.501 -0.444 0.519 -0.444 Q 0.541 -0.444 0.5535 -0.431 Q 0.5660000000000001 -0.418 0.5660000000000001 -0.4 Q 0.5660000000000001 -0.392 0.556 -0.355 Z"/></g><g transform="translate(11.831479,4.594445) scale(0.7,0.7)"><path fill="rgb(255,153,0)" stroke="none" paint-order="stroke fill markers" d=" M 0.354 -0.623 L 0.354 -0.047 L 0.494 -0.047 L 0.494 0 Q 0.45 -0.003 0.295 -0.003 Q 0.14 -0.003 0.096 0 L 0.096 -0.047 L 0.23500000000000001 -0.047 L 0.23500000000000001 -0.5640000000000001 Q 0.17300000000000001 -0.544 0.105 -0.544 L 0.085 -0.544 L 0.085 -0.591 L 0.105 -0.591 Q 0.229 -0.591 0.306 -0.648 Q 0.315 -0.655 0.328 -0.655 Q 0.34600000000000003 -0.655 0.35000000000000003 -0.6485 Q 0.354 -0.642 0.354 -0.623 Z"/></g></g><path fill="none" stroke="rgb(255,0,0)" paint-order="fill stroke markers" d=" M 210.99999999999974 156.99999999999997 L 269.3176024841062 218.65003691176972" stroke-opacity="0.6980392156862745" stroke-linecap="round" stroke-linejoin="round" stroke-miterlimit="10" stroke-width="2.5"/><path fill="rgb(255,0,0)" stroke="none" paint-order="stroke fill markers" fill-rule="evenodd" d=" M 280.9999999999996 230.9999999999999 L 266.23011171204865 221.57063629074307 L 272.40509325616375 215.72943753279637 Z" fill-opacity="0.6980392156862745"/><path fill="none" stroke="rgb(255,153,0)" paint-order="fill stroke markers" d=" M 210.99999999999974 156.99999999999997 L 287.0448533126937 176.73055653518546" stroke-opacity="0.6980392156862745" stroke-linecap="round" stroke-linejoin="round" stroke-miterlimit="10" stroke-width="2.5"/><path fill="rgb(255,153,0)" stroke="none" paint-order="stroke fill markers" fill-rule="evenodd" d=" M 303.49999999999955 180.99999999999994 L 285.9774924464901 180.84434320701192 L 288.1122141788973 172.616769863359 Z" fill-opacity="0.6980392156862745"/><path fill="rgb(255,153,0)" stroke="none" paint-order="stroke fill markers" d=" M 214.99999999999974 156.99999999999997 C 214.99999999999974 159.20913899932316 213.20913899932293 160.99999999999997 210.99999999999974 160.99999999999997 C 208.79086100067656 160.99999999999997 206.99999999999974 159.20913899932316 206.99999999999974 156.99999999999997 C 206.99999999999974 154.79086100067678 208.79086100067656 152.99999999999997 210.99999999999974 152.99999999999997 C 213.20913899932293 152.99999999999997 214.99999999999974 154.79086100067678 214.99999999999974 156.99999999999997 Z" fill-opacity="1"/><path fill="none" stroke="rgb(0,0,0)" paint-order="fill stroke markers" d=" M 214.99999999999974 156.99999999999997 C 214.99999999999974 159.20913899932316 213.20913899932293 160.99999999999997 210.99999999999974 160.99999999999997 C 208.79086100067656 160.99999999999997 206.99999999999974 159.20913899932316 206.99999999999974 156.99999999999997 C 206.99999999999974 154.79086100067678 208.79086100067656 152.99999999999997 210.99999999999974 152.99999999999997 C 213.20913899932293 152.99999999999997 214.99999999999974 154.79086100067678 214.99999999999974 156.99999999999997 Z" stroke-opacity="1" stroke-linecap="round" stroke-linejoin="round" stroke-miterlimit="10"/><path fill="rgb(255,0,0)" stroke="none" paint-order="stroke fill markers" d=" M 284.9999999999996 230.9999999999999 C 284.9999999999996 233.20913899932305 283.20913899932276 234.9999999999999 280.9999999999996 234.9999999999999 C 278.79086100067644 234.9999999999999 276.9999999999996 233.20913899932305 276.9999999999996 230.9999999999999 C 276.9999999999996 228.7908610006767 278.79086100067644 226.9999999999999 280.9999999999996 226.9999999999999 C 283.20913899932276 226.9999999999999 284.9999999999996 228.7908610006767 284.9999999999996 230.9999999999999 Z" fill-opacity="1"/><path fill="none" stroke="rgb(0,0,0)" paint-order="fill stroke markers" d=" M 284.9999999999996 230.9999999999999 C 284.9999999999996 233.20913899932305 283.20913899932276 234.9999999999999 280.9999999999996 234.9999999999999 C 278.79086100067644 234.9999999999999 276.9999999999996 233.20913899932305 276.9999999999996 230.9999999999999 C 276.9999999999996 228.7908610006767 278.79086100067644 226.9999999999999 280.9999999999996 226.9999999999999 C 283.20913899932276 226.9999999999999 284.9999999999996 228.7908610006767 284.9999999999996 230.9999999999999 Z" stroke-opacity="1" stroke-linecap="round" stroke-linejoin="round" stroke-miterlimit="10"/><g transform="scale(21,21)"><g transform="translate(13.666666666666666,11.730159285714286)"><path fill="rgb(255,0,0)" stroke="none" paint-order="stroke fill markers" d=" M 0.536 -0.401 Q 0.516 -0.41600000000000004 0.488 -0.41600000000000004 Q 0.461 -0.41600000000000004 0.4375 -0.392 Q 0.41400000000000003 -0.368 0.403 -0.325 Q 0.4 -0.316 0.385 -0.257 Q 0.37 -0.198 0.368 -0.189 Q 0.34600000000000003 -0.099 0.34600000000000003 -0.078 Q 0.34600000000000003 -0.028 0.402 -0.028 Q 0.44 -0.028 0.482 -0.0575 Q 0.524 -0.08700000000000001 0.544 -0.149 Q 0.548 -0.162 0.5670000000000001 -0.162 Q 0.591 -0.162 0.591 -0.148 Q 0.591 -0.134 0.578 -0.1095 Q 0.5650000000000001 -0.085 0.542 -0.058 Q 0.519 -0.031 0.48 -0.0115 Q 0.441 0.008 0.397 0.008 Q 0.295 0.008 0.259 -0.053 Q 0.215 0.008 0.152 0.008 Q 0.105 0.008 0.07150000000000001 -0.0165 Q 0.038 -0.041 0.038 -0.08 Q 0.038 -0.115 0.06 -0.1365 Q 0.082 -0.158 0.11 -0.158 Q 0.133 -0.158 0.1465 -0.14400000000000002 Q 0.16 -0.13 0.16 -0.112 Q 0.16 -0.091 0.1455 -0.07050000000000001 Q 0.131 -0.05 0.106 -0.043000000000000003 Q 0.126 -0.028 0.154 -0.028 Q 0.181 -0.028 0.20450000000000002 -0.051500000000000004 Q 0.228 -0.075 0.23900000000000002 -0.11900000000000001 L 0.273 -0.256 Q 0.296 -0.34800000000000003 0.296 -0.366 Q 0.296 -0.41600000000000004 0.24 -0.41600000000000004 Q 0.202 -0.41600000000000004 0.16 -0.3865 Q 0.11800000000000001 -0.357 0.098 -0.295 Q 0.094 -0.28200000000000003 0.075 -0.28200000000000003 Q 0.051000000000000004 -0.28200000000000003 0.051000000000000004 -0.296 Q 0.051000000000000004 -0.31 0.064 -0.3345 Q 0.077 -0.359 0.1 -0.386 Q 0.123 -0.41300000000000003 0.162 -0.4325 Q 0.201 -0.452 0.245 -0.452 Q 0.34700000000000003 -0.452 0.383 -0.391 Q 0.427 -0.452 0.49 -0.452 Q 0.537 -0.452 0.5705 -0.4275 Q 0.604 -0.403 0.604 -0.364 Q 0.604 -0.329 0.582 -0.3075 Q 0.56 -0.28600000000000003 0.532 -0.28600000000000003 Q 0.509 -0.28600000000000003 0.4955 -0.3 Q 0.482 -0.314 0.482 -0.332 Q 0.482 -0.353 0.4965 -0.3735 Q 0.511 -0.394 0.536 -0.401 Z"/></g><g transform="translate(14.325693666666666,11.880159285714287) scale(0.7,0.7)"><path fill="rgb(255,0,0)" stroke="none" paint-order="stroke fill markers" d=" M 0.354 -0.623 L 0.354 -0.047 L 0.494 -0.047 L 0.494 0 Q 0.45 -0.003 0.295 -0.003 Q 0.14 -0.003 0.096 0 L 0.096 -0.047 L 0.23500000000000001 -0.047 L 0.23500000000000001 -0.5640000000000001 Q 0.17300000000000001 -0.544 0.105 -0.544 L 0.085 -0.544 L 0.085 -0.591 L 0.105 -0.591 Q 0.229 -0.591 0.306 -0.648 Q 0.315 -0.655 0.328 -0.655 Q 0.34600000000000003 -0.655 0.35000000000000003 -0.6485 Q 0.354 -0.642 0.354 -0.623 Z"/></g></g><path fill="rgb(255,153,0)" stroke="none" paint-order="stroke fill markers" d=" M 237.49999999999972 107.00000000000003 C 237.49999999999972 109.2091389993232 235.70913899932287 111.00000000000003 233.49999999999972 111.00000000000003 C 231.29086100067653 111.00000000000003 229.49999999999972 109.2091389993232 229.49999999999972 107.00000000000003 C 229.49999999999972 104.79086100067686 231.29086100067653 103.00000000000003 233.49999999999972 103.00000000000003 C 235.70913899932287 103.00000000000003 237.49999999999972 104.79086100067686 237.49999999999972 107.00000000000003 Z" fill-opacity="1"/><path fill="none" stroke="rgb(0,0,0)" paint-order="fill stroke markers" d=" M 237.49999999999972 107.00000000000003 C 237.49999999999972 109.2091389993232 235.70913899932287 111.00000000000003 233.49999999999972 111.00000000000003 C 231.29086100067653 111.00000000000003 229.49999999999972 109.2091389993232 229.49999999999972 107.00000000000003 C 229.49999999999972 104.79086100067686 231.29086100067653 103.00000000000003 233.49999999999972 103.00000000000003 C 235.70913899932287 103.00000000000003 237.49999999999972 104.79086100067686 237.49999999999972 107.00000000000003 Z" stroke-opacity="1" stroke-linecap="round" stroke-linejoin="round" stroke-miterlimit="10"/><path fill="rgb(255,153,0)" stroke="none" paint-order="stroke fill markers" d=" M 307.49999999999955 180.99999999999994 C 307.49999999999955 183.2091389993231 305.7091389993227 184.99999999999994 303.49999999999955 184.99999999999994 C 301.2908610006764 184.99999999999994 299.49999999999955 183.2091389993231 299.49999999999955 180.99999999999994 C 299.49999999999955 178.79086100067676 301.2908610006764 176.99999999999994 303.49999999999955 176.99999999999994 C 305.7091389993227 176.99999999999994 307.49999999999955 178.79086100067676 307.49999999999955 180.99999999999994 Z" fill-opacity="1"/><path fill="none" stroke="rgb(0,0,0)" paint-order="fill stroke markers" d=" M 307.49999999999955 180.99999999999994 C 307.49999999999955 183.2091389993231 305.7091389993227 184.99999999999994 303.49999999999955 184.99999999999994 C 301.2908610006764 184.99999999999994 299.49999999999955 183.2091389993231 299.49999999999955 180.99999999999994 C 299.49999999999955 178.79086100067676 301.2908610006764 176.99999999999994 303.49999999999955 176.99999999999994 C 305.7091389993227 176.99999999999994 307.49999999999955 178.79086100067676 307.49999999999955 180.99999999999994 Z" stroke-opacity="1" stroke-linecap="round" stroke-linejoin="round" stroke-miterlimit="10"/><g transform="scale(21,21)"><g transform="translate(15.047619047619047,8.873016428571429)"><path fill="rgb(255,153,0)" stroke="none" paint-order="stroke fill markers" d=" M 0.556 -0.355 L 0.542 -0.299 Q 0.534 -0.267 0.517 -0.198 Q 0.501 -0.131 0.501 -0.107 Q 0.501 -0.028 0.5740000000000001 -0.028 Q 0.634 -0.028 0.677 -0.10400000000000001 Q 0.6980000000000001 -0.14100000000000001 0.7155 -0.1975 Q 0.733 -0.254 0.733 -0.269 Q 0.733 -0.303 0.683 -0.332 Q 0.653 -0.34900000000000003 0.653 -0.377 Q 0.653 -0.404 0.677 -0.4285 Q 0.7010000000000001 -0.453 0.729 -0.453 Q 0.734 -0.453 0.741 -0.451 Q 0.748 -0.449 0.7625000000000001 -0.442 Q 0.777 -0.435 0.787 -0.41400000000000003 Q 0.797 -0.393 0.797 -0.362 Q 0.797 -0.32 0.776 -0.241 Q 0.755 -0.162 0.726 -0.109 Q 0.665 0.008 0.5670000000000001 0.008 Q 0.461 0.008 0.417 -0.048 Q 0.371 0.008 0.305 0.008 Q 0.256 0.008 0.2185 -0.002 Q 0.181 -0.012 0.152 -0.044 Q 0.123 -0.076 0.123 -0.128 Q 0.123 -0.182 0.177 -0.316 Q 0.199 -0.373 0.199 -0.395 Q 0.199 -0.41600000000000004 0.182 -0.41600000000000004 Q 0.17300000000000001 -0.41600000000000004 0.163 -0.41200000000000003 Q 0.153 -0.40800000000000003 0.1375 -0.3975 Q 0.122 -0.387 0.1065 -0.3605 Q 0.091 -0.334 0.079 -0.295 Q 0.075 -0.28200000000000003 0.056 -0.28200000000000003 Q 0.032 -0.28200000000000003 0.032 -0.296 Q 0.032 -0.306 0.042 -0.3295 Q 0.052000000000000005 -0.353 0.07 -0.3815 Q 0.088 -0.41000000000000003 0.11950000000000001 -0.431 Q 0.151 -0.452 0.188 -0.452 Q 0.233 -0.452 0.267 -0.4275 Q 0.301 -0.403 0.301 -0.362 Q 0.301 -0.34600000000000003 0.28300000000000003 -0.301 Q 0.231 -0.168 0.231 -0.11 Q 0.231 -0.028 0.312 -0.028 Q 0.34900000000000003 -0.028 0.373 -0.0555 Q 0.397 -0.083 0.397 -0.094 L 0.396 -0.10200000000000001 Q 0.394 -0.11 0.394 -0.126 Q 0.394 -0.152 0.402 -0.187 Q 0.43 -0.304 0.453 -0.391 Q 0.462 -0.421 0.4815 -0.4325 Q 0.501 -0.444 0.519 -0.444 Q 0.541 -0.444 0.5535 -0.431 Q 0.5660000000000001 -0.418 0.5660000000000001 -0.4 Q 0.5660000000000001 -0.392 0.556 -0.355 Z"/></g><g transform="translate(15.879098047619047,9.02301642857143) scale(0.7,0.7)"><path fill="rgb(255,153,0)" stroke="none" paint-order="stroke fill markers" d=" M 0.517 -0.222 L 0.486 0 L 0.057 0 L 0.057 -0.018000000000000002 Q 0.057 -0.034 0.059000000000000004 -0.0385 Q 0.061 -0.043000000000000003 0.07 -0.052000000000000005 L 0.271 -0.257 Q 0.379 -0.367 0.379 -0.465 Q 0.379 -0.525 0.34400000000000003 -0.5665 Q 0.309 -0.608 0.247 -0.608 Q 0.186 -0.608 0.14400000000000002 -0.5730000000000001 Q 0.155 -0.5700000000000001 0.166 -0.5645 Q 0.177 -0.559 0.189 -0.542 Q 0.201 -0.525 0.201 -0.501 Q 0.201 -0.466 0.1785 -0.4475 Q 0.156 -0.429 0.129 -0.429 Q 0.10400000000000001 -0.429 0.0805 -0.4465 Q 0.057 -0.464 0.057 -0.503 Q 0.057 -0.5700000000000001 0.11850000000000001 -0.6125 Q 0.18 -0.655 0.272 -0.655 Q 0.379 -0.655 0.448 -0.603 Q 0.517 -0.551 0.517 -0.466 Q 0.517 -0.431 0.507 -0.404 Q 0.497 -0.377 0.46900000000000003 -0.34750000000000003 Q 0.441 -0.318 0.417 -0.299 Q 0.393 -0.28 0.339 -0.24 Q 0.292 -0.20600000000000002 0.195 -0.125 L 0.342 -0.125 Q 0.433 -0.125 0.444 -0.131 Q 0.457 -0.138 0.47000000000000003 -0.222 L 0.517 -0.222 Z"/></g></g></g></g></svg>