<svg version="1.1" xmlns="http://www.w3.org/2000/svg" xmlns:xlink="http://www.w3.org/1999/xlink" width="536" height="325"><defs><clipPath id="GZDraoEBsbeR"><path fill="none" stroke="none" d=" M 0 0 L 536 0 L 536 325 L 0 325 L 0 0 Z"/></clipPath></defs><g transform="scale(1,1)" clip-path="url(#GZDraoEBsbeR)"><g><path fill="none" stroke="rgb(0,0,0)" paint-order="fill stroke markers" d=" M 219.5 2.5 L 219.5 325.5" stroke-opacity="1" stroke-miterlimit="10"/><path fill="none" stroke="rgb(0,0,0)" paint-order="fill stroke markers" d=" M 219.5 1.5 L 215.5 5.5" stroke-opacity="1" stroke-miterlimit="10"/><path fill="none" stroke="rgb(0,0,0)" paint-order="fill stroke markers" d=" M 219.5 1.5 L 223.5 5.5" stroke-opacity="1" stroke-miterlimit="10"/><path fill="none" stroke="rgb(0,0,0)" paint-order="fill stroke markers" d=" M 0.5 158.5 L 534.5 158.5" stroke-opacity="1" stroke-miterlimit="10"/><path fill="none" stroke="rgb(0,0,0)" paint-order="fill stroke markers" d=" M 535.5 158.5 L 531.5 154.5" stroke-opacity="1" stroke-miterlimit="10"/><path fill="none" stroke="rgb(0,0,0)" paint-order="fill stroke markers" d=" M 535.5 158.5 L 531.5 162.5" stroke-opacity="1" stroke-miterlimit="10"/><path fill="none" stroke="rgb(0,0,0)" paint-order="fill stroke markers" d=" M 20.5 158.5 L 20.5 161.5" stroke-opacity="1" stroke-miterlimit="10"/><path fill="none" stroke="rgb(0,0,0)" paint-order="fill stroke markers" d=" M 70.5 158.5 L 70.5 161.5" stroke-opacity="1" stroke-miterlimit="10"/><path fill="none" stroke="rgb(0,0,0)" paint-order="fill stroke markers" d=" M 119.5 158.5 L 119.5 161.5" stroke-opacity="1" stroke-miterlimit="10"/><path fill="none" stroke="rgb(0,0,0)" paint-order="fill stroke markers" d=" M 169.5 158.5 L 169.5 161.5" stroke-opacity="1" stroke-miterlimit="10"/><path fill="none" stroke="rgb(0,0,0)" paint-order="fill stroke markers" d=" M 269.5 158.5 L 269.5 161.5" stroke-opacity="1" stroke-miterlimit="10"/><path fill="none" stroke="rgb(0,0,0)" paint-order="fill stroke markers" d=" M 319.5 158.5 L 319.5 161.5" stroke-opacity="1" stroke-miterlimit="10"/><path fill="none" stroke="rgb(0,0,0)" paint-order="fill stroke markers" d=" M 369.5 158.5 L 369.5 161.5" stroke-opacity="1" stroke-miterlimit="10"/><path fill="none" stroke="rgb(0,0,0)" paint-order="fill stroke markers" d=" M 419.5 158.5 L 419.5 161.5" stroke-opacity="1" stroke-miterlimit="10"/><path fill="none" stroke="rgb(0,0,0)" paint-order="fill stroke markers" d=" M 469.5 158.5 L 469.5 161.5" stroke-opacity="1" stroke-miterlimit="10"/><path fill="none" stroke="rgb(0,0,0)" paint-order="fill stroke markers" d=" M 519.5 158.5 L 519.5 161.5" stroke-opacity="1" stroke-miterlimit="10"/><path fill="none" stroke="rgb(0,0,0)" paint-order="fill stroke markers" d=" M 216.5 308.5 L 219.5 308.5" stroke-opacity="1" stroke-miterlimit="10"/><path fill="none" stroke="rgb(0,0,0)" paint-order="fill stroke markers" d=" M 216.5 258.5 L 219.5 258.5" stroke-opacity="1" stroke-miterlimit="10"/><path fill="none" stroke="rgb(0,0,0)" paint-order="fill stroke markers" d=" M 216.5 208.5 L 219.5 208.5" stroke-opacity="1" stroke-miterlimit="10"/><path fill="none" stroke="rgb(0,0,0)" paint-order="fill stroke markers" d=" M 216.5 108.5 L 219.5 108.5" stroke-opacity="1" stroke-miterlimit="10"/><path fill="none" stroke="rgb(0,0,0)" paint-order="fill stroke markers" d=" M 216.5 58.5 L 219.5 58.5" stroke-opacity="1" stroke-miterlimit="10"/><path fill="none" stroke="rgb(0,153,204)" paint-order="fill stroke markers" d=" M 183.9999999999999 330 L 351.4999999999998 -5" stroke-opacity="0.6980392156862745" stroke-linecap="round" stroke-linejoin="round" stroke-miterlimit="10" stroke-width="2.5"/><g transform="scale(21,21)"><g transform="translate(17.047619047619047,1.6468259523809523)"><path fill="rgb(0,153,204)" stroke="none" paint-order="stroke fill markers" d=" M 0.556 -0.355 L 0.542 -0.299 Q 0.534 -0.267 0.517 -0.198 Q 0.501 -0.131 0.501 -0.107 Q 0.501 -0.028 0.5740000000000001 -0.028 Q 0.634 -0.028 0.677 -0.10400000000000001 Q 0.6980000000000001 -0.14100000000000001 0.7155 -0.1975 Q 0.733 -0.254 0.733 -0.269 Q 0.733 -0.303 0.683 -0.332 Q 0.653 -0.34900000000000003 0.653 -0.377 Q 0.653 -0.404 0.677 -0.4285 Q 0.7010000000000001 -0.453 0.729 -0.453 Q 0.734 -0.453 0.741 -0.451 Q 0.748 -0.449 0.7625000000000001 -0.442 Q 0.777 -0.435 0.787 -0.41400000000000003 Q 0.797 -0.393 0.797 -0.362 Q 0.797 -0.32 0.776 -0.241 Q 0.755 -0.162 0.726 -0.109 Q 0.665 0.008 0.5670000000000001 0.008 Q 0.461 0.008 0.417 -0.048 Q 0.371 0.008 0.305 0.008 Q 0.256 0.008 0.2185 -0.002 Q 0.181 -0.012 0.152 -0.044 Q 0.123 -0.076 0.123 -0.128 Q 0.123 -0.182 0.177 -0.316 Q 0.199 -0.373 0.199 -0.395 Q 0.199 -0.41600000000000004 0.182 -0.41600000000000004 Q 0.17300000000000001 -0.41600000000000004 0.163 -0.41200000000000003 Q 0.153 -0.40800000000000003 0.1375 -0.3975 Q 0.122 -0.387 0.1065 -0.3605 Q 0.091 -0.334 0.079 -0.295 Q 0.075 -0.28200000000000003 0.056 -0.28200000000000003 Q 0.032 -0.28200000000000003 0.032 -0.296 Q 0.032 -0.306 0.042 -0.3295 Q 0.052000000000000005 -0.353 0.07 -0.3815 Q 0.088 -0.41000000000000003 0.11950000000000001 -0.431 Q 0.151 -0.452 0.188 -0.452 Q 0.233 -0.452 0.267 -0.4275 Q 0.301 -0.403 0.301 -0.362 Q 0.301 -0.34600000000000003 0.28300000000000003 -0.301 Q 0.231 -0.168 0.231 -0.11 Q 0.231 -0.028 0.312 -0.028 Q 0.34900000000000003 -0.028 0.373 -0.0555 Q 0.397 -0.083 0.397 -0.094 L 0.396 -0.10200000000000001 Q 0.394 -0.11 0.394 -0.126 Q 0.394 -0.152 0.402 -0.187 Q 0.43 -0.304 0.453 -0.391 Q 0.462 -0.421 0.4815 -0.4325 Q 0.501 -0.444 0.519 -0.444 Q 0.541 -0.444 0.5535 -0.431 Q 0.5660000000000001 -0.418 0.5660000000000001 -0.4 Q 0.5660000000000001 -0.392 0.556 -0.355 Z"/></g><g transform="translate(18.10132093650794,1.6468259523809523)"><path fill="rgb(0,153,204)" stroke="none" paint-order="stroke fill markers" d=" M 0.192 -0.25 Q 0.192 -0.217 0.162 -0.202 Q 0.151 -0.197 0.139 -0.197 Q 0.106 -0.197 0.091 -0.227 Q 0.08600000000000001 -0.23800000000000002 0.08600000000000001 -0.25 Q 0.08600000000000001 -0.28300000000000003 0.116 -0.298 Q 0.127 -0.303 0.139 -0.303 Q 0.17200000000000001 -0.303 0.187 -0.273 Q 0.192 -0.262 0.192 -0.25 Z"/></g><g transform="translate(18.601322825396828,1.6468259523809523)"><path fill="rgb(0,153,204)" stroke="none" paint-order="stroke fill markers" d=" M 0.536 -0.401 Q 0.516 -0.41600000000000004 0.488 -0.41600000000000004 Q 0.461 -0.41600000000000004 0.4375 -0.392 Q 0.41400000000000003 -0.368 0.403 -0.325 Q 0.4 -0.316 0.385 -0.257 Q 0.37 -0.198 0.368 -0.189 Q 0.34600000000000003 -0.099 0.34600000000000003 -0.078 Q 0.34600000000000003 -0.028 0.402 -0.028 Q 0.44 -0.028 0.482 -0.0575 Q 0.524 -0.08700000000000001 0.544 -0.149 Q 0.548 -0.162 0.5670000000000001 -0.162 Q 0.591 -0.162 0.591 -0.148 Q 0.591 -0.134 0.578 -0.1095 Q 0.5650000000000001 -0.085 0.542 -0.058 Q 0.519 -0.031 0.48 -0.0115 Q 0.441 0.008 0.397 0.008 Q 0.295 0.008 0.259 -0.053 Q 0.215 0.008 0.152 0.008 Q 0.105 0.008 0.07150000000000001 -0.0165 Q 0.038 -0.041 0.038 -0.08 Q 0.038 -0.115 0.06 -0.1365 Q 0.082 -0.158 0.11 -0.158 Q 0.133 -0.158 0.1465 -0.14400000000000002 Q 0.16 -0.13 0.16 -0.112 Q 0.16 -0.091 0.1455 -0.07050000000000001 Q 0.131 -0.05 0.106 -0.043000000000000003 Q 0.126 -0.028 0.154 -0.028 Q 0.181 -0.028 0.20450000000000002 -0.051500000000000004 Q 0.228 -0.075 0.23900000000000002 -0.11900000000000001 L 0.273 -0.256 Q 0.296 -0.34800000000000003 0.296 -0.366 Q 0.296 -0.41600000000000004 0.24 -0.41600000000000004 Q 0.202 -0.41600000000000004 0.16 -0.3865 Q 0.11800000000000001 -0.357 0.098 -0.295 Q 0.094 -0.28200000000000003 0.075 -0.28200000000000003 Q 0.051000000000000004 -0.28200000000000003 0.051000000000000004 -0.296 Q 0.051000000000000004 -0.31 0.064 -0.3345 Q 0.077 -0.359 0.1 -0.386 Q 0.123 -0.41300000000000003 0.162 -0.4325 Q 0.201 -0.452 0.245 -0.452 Q 0.34700000000000003 -0.452 0.383 -0.391 Q 0.427 -0.452 0.49 -0.452 Q 0.537 -0.452 0.5705 -0.4275 Q 0.604 -0.403 0.604 -0.364 Q 0.604 -0.329 0.582 -0.3075 Q 0.56 -0.28600000000000003 0.532 -0.28600000000000003 Q 0.509 -0.28600000000000003 0.4955 -0.3 Q 0.482 -0.314 0.482 -0.332 Q 0.482 -0.353 0.4965 -0.3735 Q 0.511 -0.394 0.536 -0.401 Z"/></g><g transform="translate(19.48257271428572,1.6468259523809523)"><path fill="rgb(0,153,204)" stroke="none" paint-order="stroke fill markers" d=" M 0.40900000000000003 -0.23 L 0.40900000000000003 0.05 Q 0.40900000000000003 0.082 0.389 0.083 Q 0.369 0.083 0.369 0.05 L 0.369 -0.23 L 0.089 -0.23 Q 0.057 -0.23 0.056 -0.25 Q 0.056 -0.27 0.089 -0.27 L 0.369 -0.27 L 0.369 -0.55 Q 0.369 -0.582 0.389 -0.583 Q 0.40900000000000003 -0.583 0.40900000000000003 -0.55 L 0.40900000000000003 -0.27 L 0.6880000000000001 -0.27 Q 0.72 -0.27 0.721 -0.25 Q 0.721 -0.23 0.6880000000000001 -0.23 L 0.40900000000000003 -0.23 Z"/></g><g transform="translate(20.48257660317461,1.6468259523809523)"><path fill="rgb(0,153,204)" stroke="none" paint-order="stroke fill markers" d=" M 0.23900000000000002 -0.683 L 0.165 -0.382 Q 0.223 -0.442 0.28200000000000003 -0.442 Q 0.357 -0.442 0.394 -0.373 Q 0.41500000000000004 -0.333 0.41500000000000004 -0.28200000000000003 Q 0.41500000000000004 -0.176 0.341 -0.084 Q 0.272 0.001 0.189 0.01 Q 0.181 0.011 0.17400000000000002 0.011 Q 0.10200000000000001 0.011 0.067 -0.056 Q 0.047 -0.094 0.047 -0.146 Q 0.047 -0.18 0.063 -0.247 L 0.145 -0.5730000000000001 Q 0.159 -0.632 0.159 -0.635 Q 0.159 -0.646 0.145 -0.649 L 0.145 -0.649 Q 0.133 -0.652 0.109 -0.652 Q 0.08700000000000001 -0.652 0.085 -0.664 Q 0.085 -0.681 0.10400000000000001 -0.684 L 0.226 -0.6940000000000001 Q 0.23900000000000002 -0.6940000000000001 0.23900000000000002 -0.683 M 0.145 -0.305 L 0.123 -0.213 Q 0.107 -0.15 0.107 -0.112 Q 0.107 -0.026000000000000002 0.159 -0.013000000000000001 Q 0.166 -0.011 0.17400000000000002 -0.011 Q 0.227 -0.011 0.273 -0.081 Q 0.28300000000000003 -0.096 0.292 -0.114 Q 0.319 -0.171 0.337 -0.268 Q 0.343 -0.303 0.343 -0.326 Q 0.343 -0.406 0.294 -0.418 L 0.293 -0.419 Q 0.28700000000000003 -0.42 0.28 -0.42 Q 0.22 -0.42 0.16 -0.34 Q 0.152 -0.33 0.145 -0.305 Z"/></g><g transform="translate(21.18952221428572,1.6468259523809523)"><path fill="rgb(0,153,204)" stroke="none" paint-order="stroke fill markers" d=" M 0.687 -0.327 L 0.09 -0.327 Q 0.058 -0.327 0.056 -0.34700000000000003 Q 0.056 -0.367 0.089 -0.367 L 0.6880000000000001 -0.367 Q 0.72 -0.367 0.721 -0.34700000000000003 Q 0.721 -0.327 0.687 -0.327 M 0.6880000000000001 -0.133 L 0.089 -0.133 Q 0.057 -0.133 0.056 -0.153 Q 0.056 -0.17300000000000001 0.09 -0.17300000000000001 L 0.687 -0.17300000000000001 Q 0.719 -0.17300000000000001 0.721 -0.153 Q 0.721 -0.133 0.6880000000000001 -0.133 Z"/></g><g transform="translate(22.24508182539683,1.6468259523809523)"><path fill="rgb(0,153,204)" stroke="none" paint-order="stroke fill markers" d=" M 0.46 -0.32 Q 0.46 -0.17400000000000002 0.423 -0.094 Q 0.364 0.018000000000000002 0.249 0.022 Q 0.158 0.022 0.10300000000000001 -0.05 Q 0.092 -0.063 0.084 -0.079 Q 0.039 -0.162 0.039 -0.32 Q 0.039 -0.467 0.076 -0.547 Q 0.126 -0.659 0.23800000000000002 -0.666 L 0.25 -0.666 Q 0.339 -0.666 0.395 -0.595 L 0.395 -0.594 Q 0.40900000000000003 -0.5760000000000001 0.42 -0.554 Q 0.46 -0.46900000000000003 0.46 -0.32 M 0.249 0 L 0.249 0 Q 0.312 0 0.34600000000000003 -0.061 Q 0.36 -0.088 0.366 -0.125 Q 0.377 -0.189 0.377 -0.332 Q 0.377 -0.47100000000000003 0.367 -0.527 Q 0.34900000000000003 -0.622 0.275 -0.641 Q 0.262 -0.644 0.249 -0.644 Q 0.179 -0.644 0.147 -0.5740000000000001 Q 0.136 -0.55 0.13 -0.516 Q 0.122 -0.462 0.122 -0.332 Q 0.122 -0.181 0.133 -0.121 Q 0.151 -0.025 0.221 -0.004 Q 0.23500000000000001 0 0.249 0 Z"/></g></g><path fill="none" stroke="rgb(255,153,0)" paint-order="fill stroke markers" d=" M 259.99999999999983 178.00000000000006 L 344.7947377530012 220.39736887650074" stroke-opacity="0.6980392156862745" stroke-linecap="round" stroke-linejoin="round" stroke-miterlimit="10" stroke-width="2.5"/><path fill="rgb(255,153,0)" stroke="none" paint-order="stroke fill markers" fill-rule="evenodd" d=" M 359.9999999999998 228.00000000000003 L 342.89407997212635 224.19868443825038 L 346.695395533876 216.5960533147511 Z" fill-opacity="0.6980392156862745"/><g transform="scale(21,21)"><g transform="translate(15.952380952380953,11.63492119047619)"><path fill="rgb(255,153,0)" stroke="none" paint-order="stroke fill markers" d=" M 0.556 -0.355 L 0.542 -0.299 Q 0.534 -0.267 0.517 -0.198 Q 0.501 -0.131 0.501 -0.107 Q 0.501 -0.028 0.5740000000000001 -0.028 Q 0.634 -0.028 0.677 -0.10400000000000001 Q 0.6980000000000001 -0.14100000000000001 0.7155 -0.1975 Q 0.733 -0.254 0.733 -0.269 Q 0.733 -0.303 0.683 -0.332 Q 0.653 -0.34900000000000003 0.653 -0.377 Q 0.653 -0.404 0.677 -0.4285 Q 0.7010000000000001 -0.453 0.729 -0.453 Q 0.734 -0.453 0.741 -0.451 Q 0.748 -0.449 0.7625000000000001 -0.442 Q 0.777 -0.435 0.787 -0.41400000000000003 Q 0.797 -0.393 0.797 -0.362 Q 0.797 -0.32 0.776 -0.241 Q 0.755 -0.162 0.726 -0.109 Q 0.665 0.008 0.5670000000000001 0.008 Q 0.461 0.008 0.417 -0.048 Q 0.371 0.008 0.305 0.008 Q 0.256 0.008 0.2185 -0.002 Q 0.181 -0.012 0.152 -0.044 Q 0.123 -0.076 0.123 -0.128 Q 0.123 -0.182 0.177 -0.316 Q 0.199 -0.373 0.199 -0.395 Q 0.199 -0.41600000000000004 0.182 -0.41600000000000004 Q 0.17300000000000001 -0.41600000000000004 0.163 -0.41200000000000003 Q 0.153 -0.40800000000000003 0.1375 -0.3975 Q 0.122 -0.387 0.1065 -0.3605 Q 0.091 -0.334 0.079 -0.295 Q 0.075 -0.28200000000000003 0.056 -0.28200000000000003 Q 0.032 -0.28200000000000003 0.032 -0.296 Q 0.032 -0.306 0.042 -0.3295 Q 0.052000000000000005 -0.353 0.07 -0.3815 Q 0.088 -0.41000000000000003 0.11950000000000001 -0.431 Q 0.151 -0.452 0.188 -0.452 Q 0.233 -0.452 0.267 -0.4275 Q 0.301 -0.403 0.301 -0.362 Q 0.301 -0.34600000000000003 0.28300000000000003 -0.301 Q 0.231 -0.168 0.231 -0.11 Q 0.231 -0.028 0.312 -0.028 Q 0.34900000000000003 -0.028 0.373 -0.0555 Q 0.397 -0.083 0.397 -0.094 L 0.396 -0.10200000000000001 Q 0.394 -0.11 0.394 -0.126 Q 0.394 -0.152 0.402 -0.187 Q 0.43 -0.304 0.453 -0.391 Q 0.462 -0.421 0.4815 -0.4325 Q 0.501 -0.444 0.519 -0.444 Q 0.541 -0.444 0.5535 -0.431 Q 0.5660000000000001 -0.418 0.5660000000000001 -0.4 Q 0.5660000000000001 -0.392 0.556 -0.355 Z"/></g></g><path fill="rgb(102,204,255)" stroke="none" paint-order="stroke fill markers" d=" M 223.9999999999999 158.00000000000006 C 223.9999999999999 160.20913899932322 222.20913899932305 162.00000000000006 219.9999999999999 162.00000000000006 C 217.7908610006767 162.00000000000006 215.9999999999999 160.20913899932322 215.9999999999999 158.00000000000006 C 215.9999999999999 155.79086100067687 217.7908610006767 154.00000000000006 219.9999999999999 154.00000000000006 C 222.20913899932305 154.00000000000006 223.9999999999999 155.79086100067687 223.9999999999999 158.00000000000006 Z" fill-opacity="1"/><path fill="none" stroke="rgb(0,0,0)" paint-order="fill stroke markers" d=" M 223.9999999999999 158.00000000000006 C 223.9999999999999 160.20913899932322 222.20913899932305 162.00000000000006 219.9999999999999 162.00000000000006 C 217.7908610006767 162.00000000000006 215.9999999999999 160.20913899932322 215.9999999999999 158.00000000000006 C 215.9999999999999 155.79086100067687 217.7908610006767 154.00000000000006 219.9999999999999 154.00000000000006 C 222.20913899932305 154.00000000000006 223.9999999999999 155.79086100067687 223.9999999999999 158.00000000000006 Z" stroke-opacity="1" stroke-linecap="round" stroke-linejoin="round" stroke-miterlimit="10"/><path fill="rgb(255,153,0)" stroke="none" paint-order="stroke fill markers" d=" M 263.99999999999983 178.00000000000006 C 263.99999999999983 180.20913899932322 262.209138999323 182.00000000000006 259.99999999999983 182.00000000000006 C 257.79086100067667 182.00000000000006 255.99999999999983 180.20913899932322 255.99999999999983 178.00000000000006 C 255.99999999999983 175.79086100067687 257.79086100067667 174.00000000000006 259.99999999999983 174.00000000000006 C 262.209138999323 174.00000000000006 263.99999999999983 175.79086100067687 263.99999999999983 178.00000000000006 Z" fill-opacity="1"/><path fill="none" stroke="rgb(0,0,0)" paint-order="fill stroke markers" d=" M 263.99999999999983 178.00000000000006 C 263.99999999999983 180.20913899932322 262.209138999323 182.00000000000006 259.99999999999983 182.00000000000006 C 257.79086100067667 182.00000000000006 255.99999999999983 180.20913899932322 255.99999999999983 178.00000000000006 C 255.99999999999983 175.79086100067687 257.79086100067667 174.00000000000006 259.99999999999983 174.00000000000006 C 262.209138999323 174.00000000000006 263.99999999999983 175.79086100067687 263.99999999999983 178.00000000000006 Z" stroke-opacity="1" stroke-linecap="round" stroke-linejoin="round" stroke-miterlimit="10"/><path fill="rgb(77,77,255)" stroke="none" paint-order="stroke fill markers" d=" M 401.9999999999997 134.00000000000006 C 401.9999999999997 136.76142374915403 399.76142374915366 139.00000000000006 396.9999999999997 139.00000000000006 C 394.23857625084577 139.00000000000006 391.9999999999997 136.76142374915403 391.9999999999997 134.00000000000006 C 391.9999999999997 131.23857625084608 394.23857625084577 129.00000000000006 396.9999999999997 129.00000000000006 C 399.76142374915366 129.00000000000006 401.9999999999997 131.23857625084608 401.9999999999997 134.00000000000006 Z" fill-opacity="1"/><path fill="none" stroke="rgb(0,0,0)" paint-order="fill stroke markers" d=" M 401.9999999999997 134.00000000000006 C 401.9999999999997 136.76142374915403 399.76142374915366 139.00000000000006 396.9999999999997 139.00000000000006 C 394.23857625084577 139.00000000000006 391.9999999999997 136.76142374915403 391.9999999999997 134.00000000000006 C 391.9999999999997 131.23857625084608 394.23857625084577 129.00000000000006 396.9999999999997 129.00000000000006 C 399.76142374915366 129.00000000000006 401.9999999999997 131.23857625084608 401.9999999999997 134.00000000000006 Z" stroke-opacity="1" stroke-linecap="round" stroke-linejoin="round" stroke-miterlimit="10"/><g transform="scale(21,21)"><g transform="translate(18.857142857142858,5.730159285714286)"><path fill="rgb(77,77,255)" stroke="none" paint-order="stroke fill markers" d=" M 0.515 -0.317 L 0.492 -0.228 Q 0.487 -0.20600000000000002 0.47000000000000003 -0.138 Q 0.456 -0.082 0.456 -0.065 Q 0.456 -0.028 0.47900000000000004 -0.028 Q 0.522 -0.028 0.547 -0.128 Q 0.554 -0.156 0.555 -0.157 Q 0.56 -0.162 0.5750000000000001 -0.162 Q 0.599 -0.162 0.599 -0.148 Q 0.599 -0.14 0.588 -0.1075 Q 0.577 -0.075 0.561 -0.049 Q 0.528 0.008 0.47400000000000003 0.008 Q 0.397 0.008 0.359 -0.046 Q 0.301 0.008 0.22 0.008 Q 0.148 0.008 0.0965 -0.032 Q 0.045 -0.07200000000000001 0.045 -0.157 Q 0.045 -0.268 0.1245 -0.36 Q 0.20400000000000001 -0.452 0.327 -0.452 Q 0.394 -0.452 0.433 -0.41000000000000003 Q 0.453 -0.435 0.484 -0.435 Q 0.502 -0.435 0.5165 -0.424 Q 0.531 -0.41300000000000003 0.531 -0.391 Q 0.531 -0.384 0.515 -0.317 M 0.34900000000000003 -0.093 L 0.41000000000000003 -0.34400000000000003 L 0.41200000000000003 -0.358 Q 0.41200000000000003 -0.372 0.3895 -0.394 Q 0.367 -0.41600000000000004 0.329 -0.41600000000000004 Q 0.25 -0.41600000000000004 0.20800000000000002 -0.318 Q 0.194 -0.28400000000000003 0.176 -0.212 Q 0.158 -0.14 0.158 -0.10400000000000001 Q 0.158 -0.028 0.225 -0.028 Q 0.259 -0.028 0.292 -0.0465 Q 0.325 -0.065 0.34900000000000003 -0.093 Z"/></g><g transform="translate(19.490010857142856,5.880159285714286) scale(0.7,0.7)"><path fill="rgb(77,77,255)" stroke="none" paint-order="stroke fill markers" d=" M 0.354 -0.623 L 0.354 -0.047 L 0.494 -0.047 L 0.494 0 Q 0.45 -0.003 0.295 -0.003 Q 0.14 -0.003 0.096 0 L 0.096 -0.047 L 0.23500000000000001 -0.047 L 0.23500000000000001 -0.5640000000000001 Q 0.17300000000000001 -0.544 0.105 -0.544 L 0.085 -0.544 L 0.085 -0.591 L 0.105 -0.591 Q 0.229 -0.591 0.306 -0.648 Q 0.315 -0.655 0.328 -0.655 Q 0.34600000000000003 -0.655 0.35000000000000003 -0.6485 Q 0.354 -0.642 0.354 -0.623 Z"/></g></g><path fill="rgb(77,77,255)" stroke="none" paint-order="stroke fill markers" d=" M 110.00000000000001 188.00000000000006 C 110.00000000000001 190.76142374915403 107.76142374915398 193.00000000000006 105.00000000000001 193.00000000000006 C 102.23857625084605 193.00000000000006 100.00000000000001 190.76142374915403 100.00000000000001 188.00000000000006 C 100.00000000000001 185.23857625084608 102.23857625084605 183.00000000000006 105.00000000000001 183.00000000000006 C 107.76142374915398 183.00000000000006 110.00000000000001 185.23857625084608 110.00000000000001 188.00000000000006 Z" fill-opacity="1"/><path fill="none" stroke="rgb(0,0,0)" paint-order="fill stroke markers" d=" M 110.00000000000001 188.00000000000006 C 110.00000000000001 190.76142374915403 107.76142374915398 193.00000000000006 105.00000000000001 193.00000000000006 C 102.23857625084605 193.00000000000006 100.00000000000001 190.76142374915403 100.00000000000001 188.00000000000006 C 100.00000000000001 185.23857625084608 102.23857625084605 183.00000000000006 105.00000000000001 183.00000000000006 C 107.76142374915398 183.00000000000006 110.00000000000001 185.23857625084608 110.00000000000001 188.00000000000006 Z" stroke-opacity="1" stroke-linecap="round" stroke-linejoin="round" stroke-miterlimit="10"/><g transform="scale(21,21)"><g transform="translate(3.6666666666666665,8.587302142857142)"><path fill="rgb(77,77,255)" stroke="none" paint-order="stroke fill markers" d=" M 0.515 -0.317 L 0.492 -0.228 Q 0.487 -0.20600000000000002 0.47000000000000003 -0.138 Q 0.456 -0.082 0.456 -0.065 Q 0.456 -0.028 0.47900000000000004 -0.028 Q 0.522 -0.028 0.547 -0.128 Q 0.554 -0.156 0.555 -0.157 Q 0.56 -0.162 0.5750000000000001 -0.162 Q 0.599 -0.162 0.599 -0.148 Q 0.599 -0.14 0.588 -0.1075 Q 0.577 -0.075 0.561 -0.049 Q 0.528 0.008 0.47400000000000003 0.008 Q 0.397 0.008 0.359 -0.046 Q 0.301 0.008 0.22 0.008 Q 0.148 0.008 0.0965 -0.032 Q 0.045 -0.07200000000000001 0.045 -0.157 Q 0.045 -0.268 0.1245 -0.36 Q 0.20400000000000001 -0.452 0.327 -0.452 Q 0.394 -0.452 0.433 -0.41000000000000003 Q 0.453 -0.435 0.484 -0.435 Q 0.502 -0.435 0.5165 -0.424 Q 0.531 -0.41300000000000003 0.531 -0.391 Q 0.531 -0.384 0.515 -0.317 M 0.34900000000000003 -0.093 L 0.41000000000000003 -0.34400000000000003 L 0.41200000000000003 -0.358 Q 0.41200000000000003 -0.372 0.3895 -0.394 Q 0.367 -0.41600000000000004 0.329 -0.41600000000000004 Q 0.25 -0.41600000000000004 0.20800000000000002 -0.318 Q 0.194 -0.28400000000000003 0.176 -0.212 Q 0.158 -0.14 0.158 -0.10400000000000001 Q 0.158 -0.028 0.225 -0.028 Q 0.259 -0.028 0.292 -0.0465 Q 0.325 -0.065 0.34900000000000003 -0.093 Z"/></g><g transform="translate(4.299534666666666,8.737302142857143) scale(0.7,0.7)"><path fill="rgb(77,77,255)" stroke="none" paint-order="stroke fill markers" d=" M 0.352 -0.352 Q 0.403 -0.341 0.4395 -0.3205 Q 0.47600000000000003 -0.3 0.4935 -0.2745 Q 0.511 -0.249 0.5185 -0.2265 Q 0.526 -0.20400000000000001 0.526 -0.18 Q 0.526 -0.10300000000000001 0.4625 -0.046 Q 0.399 0.011 0.274 0.011 Q 0.176 0.011 0.112 -0.0305 Q 0.048 -0.07200000000000001 0.048 -0.139 Q 0.048 -0.176 0.07 -0.1965 Q 0.092 -0.217 0.125 -0.217 Q 0.158 -0.217 0.1795 -0.196 Q 0.201 -0.17500000000000002 0.201 -0.14100000000000001 Q 0.201 -0.082 0.14300000000000002 -0.066 Q 0.197 -0.032 0.269 -0.032 Q 0.299 -0.032 0.32 -0.044 Q 0.341 -0.056 0.35100000000000003 -0.07050000000000001 Q 0.361 -0.085 0.3665 -0.109 Q 0.372 -0.133 0.3725 -0.1465 Q 0.373 -0.16 0.373 -0.181 Q 0.373 -0.203 0.3725 -0.2165 Q 0.372 -0.23 0.366 -0.2545 Q 0.36 -0.279 0.34950000000000003 -0.293 Q 0.339 -0.307 0.317 -0.3185 Q 0.295 -0.33 0.264 -0.33 L 0.22 -0.33 Q 0.209 -0.33 0.20450000000000002 -0.3305 Q 0.2 -0.331 0.196 -0.335 Q 0.192 -0.339 0.192 -0.34800000000000003 Q 0.192 -0.364 0.20400000000000001 -0.365 Q 0.215 -0.367 0.252 -0.369 Q 0.277 -0.37 0.296 -0.3805 Q 0.315 -0.391 0.3255 -0.40800000000000003 Q 0.336 -0.425 0.343 -0.441 Q 0.35000000000000003 -0.457 0.353 -0.47600000000000003 Q 0.356 -0.495 0.3565 -0.5035000000000001 Q 0.357 -0.512 0.357 -0.519 Q 0.357 -0.616 0.271 -0.616 Q 0.20600000000000002 -0.616 0.161 -0.58 Q 0.219 -0.5660000000000001 0.219 -0.51 Q 0.219 -0.481 0.2 -0.461 Q 0.181 -0.441 0.149 -0.441 Q 0.12 -0.441 0.1 -0.4605 Q 0.08 -0.48 0.08 -0.511 Q 0.08 -0.5720000000000001 0.1345 -0.6135 Q 0.189 -0.655 0.277 -0.655 Q 0.379 -0.655 0.4365 -0.6155 Q 0.494 -0.5760000000000001 0.494 -0.516 Q 0.494 -0.456 0.452 -0.41300000000000003 Q 0.41000000000000003 -0.37 0.352 -0.352 Z"/></g></g><path fill="rgb(0,0,255)" stroke="none" paint-order="stroke fill markers" d=" M 209.39999999999992 289.2 C 209.39999999999992 291.96142374915394 207.1614237491539 294.2 204.39999999999992 294.2 C 201.63857625084594 294.2 199.39999999999992 291.96142374915394 199.39999999999992 289.2 C 199.39999999999992 286.43857625084604 201.63857625084594 284.2 204.39999999999992 284.2 C 207.1614237491539 284.2 209.39999999999992 286.43857625084604 209.39999999999992 289.2 Z" fill-opacity="1"/><path fill="none" stroke="rgb(0,0,0)" paint-order="fill stroke markers" d=" M 209.39999999999992 289.2 C 209.39999999999992 291.96142374915394 207.1614237491539 294.2 204.39999999999992 294.2 C 201.63857625084594 294.2 199.39999999999992 291.96142374915394 199.39999999999992 289.2 C 199.39999999999992 286.43857625084604 201.63857625084594 284.2 204.39999999999992 284.2 C 207.1614237491539 284.2 209.39999999999992 286.43857625084604 209.39999999999992 289.2 Z" stroke-opacity="1" stroke-linecap="round" stroke-linejoin="round" stroke-miterlimit="10"/><g transform="scale(21,21)"><g transform="translate(8.285714285714286,13.301587857142858)"><path fill="rgb(0,0,255)" stroke="none" paint-order="stroke fill markers" d=" M 0.515 -0.317 L 0.492 -0.228 Q 0.487 -0.20600000000000002 0.47000000000000003 -0.138 Q 0.456 -0.082 0.456 -0.065 Q 0.456 -0.028 0.47900000000000004 -0.028 Q 0.522 -0.028 0.547 -0.128 Q 0.554 -0.156 0.555 -0.157 Q 0.56 -0.162 0.5750000000000001 -0.162 Q 0.599 -0.162 0.599 -0.148 Q 0.599 -0.14 0.588 -0.1075 Q 0.577 -0.075 0.561 -0.049 Q 0.528 0.008 0.47400000000000003 0.008 Q 0.397 0.008 0.359 -0.046 Q 0.301 0.008 0.22 0.008 Q 0.148 0.008 0.0965 -0.032 Q 0.045 -0.07200000000000001 0.045 -0.157 Q 0.045 -0.268 0.1245 -0.36 Q 0.20400000000000001 -0.452 0.327 -0.452 Q 0.394 -0.452 0.433 -0.41000000000000003 Q 0.453 -0.435 0.484 -0.435 Q 0.502 -0.435 0.5165 -0.424 Q 0.531 -0.41300000000000003 0.531 -0.391 Q 0.531 -0.384 0.515 -0.317 M 0.34900000000000003 -0.093 L 0.41000000000000003 -0.34400000000000003 L 0.41200000000000003 -0.358 Q 0.41200000000000003 -0.372 0.3895 -0.394 Q 0.367 -0.41600000000000004 0.329 -0.41600000000000004 Q 0.25 -0.41600000000000004 0.20800000000000002 -0.318 Q 0.194 -0.28400000000000003 0.176 -0.212 Q 0.158 -0.14 0.158 -0.10400000000000001 Q 0.158 -0.028 0.225 -0.028 Q 0.259 -0.028 0.292 -0.0465 Q 0.325 -0.065 0.34900000000000003 -0.093 Z"/></g><g transform="translate(8.918582285714287,13.451587857142858) scale(0.7,0.7)"><path fill="rgb(0,0,255)" stroke="none" paint-order="stroke fill markers" d=" M 0.517 -0.222 L 0.486 0 L 0.057 0 L 0.057 -0.018000000000000002 Q 0.057 -0.034 0.059000000000000004 -0.0385 Q 0.061 -0.043000000000000003 0.07 -0.052000000000000005 L 0.271 -0.257 Q 0.379 -0.367 0.379 -0.465 Q 0.379 -0.525 0.34400000000000003 -0.5665 Q 0.309 -0.608 0.247 -0.608 Q 0.186 -0.608 0.14400000000000002 -0.5730000000000001 Q 0.155 -0.5700000000000001 0.166 -0.5645 Q 0.177 -0.559 0.189 -0.542 Q 0.201 -0.525 0.201 -0.501 Q 0.201 -0.466 0.1785 -0.4475 Q 0.156 -0.429 0.129 -0.429 Q 0.10400000000000001 -0.429 0.0805 -0.4465 Q 0.057 -0.464 0.057 -0.503 Q 0.057 -0.5700000000000001 0.11850000000000001 -0.6125 Q 0.18 -0.655 0.272 -0.655 Q 0.379 -0.655 0.448 -0.603 Q 0.517 -0.551 0.517 -0.466 Q 0.517 -0.431 0.507 -0.404 Q 0.497 -0.377 0.46900000000000003 -0.34750000000000003 Q 0.441 -0.318 0.417 -0.299 Q 0.393 -0.28 0.339 -0.24 Q 0.292 -0.20600000000000002 0.195 -0.125 L 0.342 -0.125 Q 0.433 -0.125 0.444 -0.131 Q 0.457 -0.138 0.47000000000000003 -0.222 L 0.517 -0.222 Z"/></g></g></g></g></svg>