<?xml version="1.0" encoding="UTF-8"?>
<!DOCTYPE svg  PUBLIC '-//W3C//DTD SVG 1.1//EN'  'http://www.w3.org/Graphics/SVG/1.1/DTD/svg11.dtd'>
<!-- Created with matplotlib (https://matplotlib.org/) -->
<svg width="432pt" height="216pt" version="1.1" viewBox="0 0 432 216" xmlns="http://www.w3.org/2000/svg" xmlns:xlink="http://www.w3.org/1999/xlink">
 <defs>
  <style type="text/css">*{stroke-linecap:butt;stroke-linejoin:round;}</style>
 </defs>
 <g id="figure_1">
  <g id="patch_1">
   <path d="m0 216h432v-216h-432z" fill="#fff"/>
  </g>
  <g id="axes_1">
   <g id="patch_2">
    <path d="m64.8 213.84h302.4v-213.62h-302.4z" fill="#fff"/>
   </g>
   <g id="PolyCollection_1">
    <path d="m6 220.96v104.44l411.6-261.69v-104.44l-411.6 261.69z" clip-path="url(#pf9aacaf065)" fill="#87ceeb" fill-opacity=".2" stroke="#87ceeb" stroke-opacity=".2"/>
   </g>
   <g id="Quiver_1">
    <path d="m199.13 202.06-46.799-62.448-1.1348 2.2676-4.0783-11.115 9.523 7.0343-2.495 0.45267 46.799 62.448-1.8149 1.3601" clip-path="url(#pf9aacaf065)"/>
   </g>
   <g id="Quiver_2">
    <path d="m148.03 130.08 46.799 62.448 1.1348-2.2676 4.0783 11.115-9.523-7.0343 2.495-0.45267-46.799-62.448 1.8149-1.3601" clip-path="url(#pf9aacaf065)"/>
   </g>
   <g id="line2d_1">
    <path d="m12.23 217 342.88-218" clip-path="url(#pf9aacaf065)" fill="none" stroke="#00f" stroke-dasharray="3.7,1.6" stroke-opacity=".4"/>
   </g>
   <g id="line2d_2">
    <path d="m94.363 217 323.24-205.51" clip-path="url(#pf9aacaf065)" fill="none" stroke="#000" stroke-linecap="square"/>
   </g>
   <g id="line2d_3">
    <path d="m176.5 217 241.1-153.29" clip-path="url(#pf9aacaf065)" fill="none" stroke="#f00" stroke-dasharray="3.7,1.6" stroke-opacity=".4"/>
   </g>
   <g id="patch_3">
    <path d="m64.8 213.84v-213.62" fill="none" stroke="#000" stroke-linecap="square" stroke-width=".8"/>
   </g>
   <g id="patch_4">
    <path d="m367.2 213.84v-213.62" fill="none" stroke="#000" stroke-linecap="square" stroke-width=".8"/>
   </g>
   <g id="patch_5">
    <path d="m64.8 213.84h302.4" fill="none" stroke="#000" stroke-linecap="square" stroke-width=".8"/>
   </g>
   <g id="patch_6">
    <path d="m64.8 0.216h302.4" fill="none" stroke="#000" stroke-linecap="square" stroke-width=".8"/>
   </g>
   <g id="text_1">
    <!-- 宽度（Margin） -->
    <defs>
     <path id="SimHei-23485" d="m21.094 53.516q7.0312 0 9.7656-0.20312 2.7344-0.1875 5.0781-0.1875 0 3.5156-0.39062 7.0312h7.8125q-0.39062-3.5156-0.39062-7.0312h14.453q0 3.125-0.39062 7.4219h7.8125q-0.39062-4.2969-0.39062-7.4219 7.8125 0 14.844 0.39062v-5.8594q-7.8125 0.39062-14.844 0.39062v-9.7656h13.672q-0.39062-4.6875-0.39062-9.375v-5.8594q0-3.9062 0.39062-10.156h-7.4219v20.312h-41.016v-21.484h-7.4219q0.39062 7.0312 0.39062 10.938v5.8594q0 5.0781-0.39062 9.7656h13.672v9.7656q-1.9531 0-4.8906 0-2.9219 0-9.9531-0.78125zm21.875-5.4688v-9.7656h14.453v9.7656zm0.39062-19.141q5.4688-1.5625 8.9844-1.9531-3.125-12.891-6.8438-19.734-3.7031-6.8281-11.125-10.531-7.4219-3.7188-21.875-6.8438-1.5625 5.4688-3.9062 8.9844 9.375 0 15.812 1.5625 6.4531 1.5625 10.547 5.2656 4.1094 3.7188 6.0625 9.5781t2.3438 13.672zm10.938-9.375h7.4219q-0.39062-5.0781-0.39062-8.9844v-8.2031q-0.39062-3.9062 4.2969-4.2969h11.328q4.6875 0 6.6406 1.5625t4.2969 8.9844q3.125-1.5625 7.0312-3.5156-3.125-12.109-14.453-12.5h-17.188q-8.2031 0.39062-8.5938 7.4219v11.328q0 3.125-0.39062 8.2031zm36.719 49.609q-0.39062-3.9062-0.39062-8.2031t0.39062-7.4219h-7.8125v10.547h-66.797v-12.109h-7.8125q0.39062 5.0781 0.39062 8.7812 0 3.7188-0.39062 8.4062h40.234q-0.78125 3.125-3.5156 9.375 3.9062 1.1719 7.8125 2.3438 2.3438-5.8594 4.2969-11.719z"/>
     <path id="SimHei-24230" d="m46.484 45.703v-8.2031h20.703v8.2031zm-19.141 6.25q7.4219-0.39062 12.109-0.39062 0 4.6875-0.39062 8.2031h7.8125q-0.39062-3.125-0.39062-8.2031h20.703q0 4.6875-0.39062 8.5938h7.8125q-0.39062-3.9062-0.39062-8.5938 8.2031 0 14.453 0.39062v-6.6406q-5.8594 0.39062-14.453 0.39062 0-9.375 0.39062-14.062h-35.547q0.39062 5.0781 0.39062 14.062-4.6875 0-12.109-0.39062zm18.359-32.812q-6.6406 0-14.062-0.39062v6.6406q7.4219-0.39062 13.672-0.39062h34.375q-3.5156-7.0312-7.8125-12.891t-8.9844-9.375q5.8594-2.7344 13.469-3.9062 7.625-1.1719 15.438-0.78125-3.125-3.5156-4.6875-8.2031-8.5938 0.78125-15.625 2.7344t-14.844 5.0781q-7.8125-3.125-15.234-4.875-7.4219-1.7656-15.625-2.9375-1.1719 3.9062-3.5156 7.8125 8.2031 0 14.844 1.1719t14.062 3.5156q-4.6875 3.9062-12.109 16.797h7.8125q3.9062-7.4219 10.547-12.891 5.8594 4.2969 11.328 12.891zm3.125 49.609q-1.1719 5.4688-2.7344 10.938 3.125 0.39062 8.2031 1.5625 1.1719-5.0781 2.7344-12.5h14.453q7.8125 0.39062 17.578 0.78125v-7.0312q-9.375 0.39062-16.797 0.39062h-49.609q0-17.578-0.39062-28.328-0.39062-10.734-2.5469-20.891-2.1406-10.156-8.3906-22.266-3.5156 3.9062-7.0312 5.4688 5.8594 8.5938 8.3906 18.938 2.5469 10.359 2.7344 26.562 0.20312 16.219-0.1875 26.375z"/>
     <path id="SimHei-65288" d="m70.703 5.4688q13.281-8.9844 14.062-8.2031t-5.2812 5.4688q-6.0469 4.6875-11.125 11.906-5.0781 7.2344-5.0781 20.125t5.2656 21.094q5.2812 8.2031 10.75 12.688 5.4688 4.5 5.2656 5.4688-0.1875 0.98438-8.2031-4.6875-8-5.6562-13.859-15.234-5.8594-9.5625-4.8906-21.672 0.98438-12.109 7.0312-19.531 6.0625-7.4219 19.344-16.406z"/>
     <path id="SimHei-77" d="m46.094 1.5625h-7.8125v47.656h-0.78125l-9.375-47.656h-6.25l-9.375 47.656h-0.78125v-47.656h-7.8125v66.797h12.109l8.5938-44.141h0.78125l8.5938 44.141h12.109z"/>
     <path id="SimHei-97" d="m45.312 1.5625h-9.375q-0.78125 0.78125-1.1719 2.1406-0.39062 1.375-0.39062 3.3281-2.7344-3.125-6.6406-4.6875t-8.2031-1.5625q-6.25 0-10.547 3.125t-4.2969 8.9844 3.9062 9.375 12.109 4.6875q5.4688 0.78125 9.5625 1.9531 4.1094 1.1719 4.1094 3.125 0 2.3438-1.7656 4.6875-1.75 2.3438-7.6094 2.3438-4.6875 0-6.8438-1.7656-2.1406-1.75-2.9219-4.875h-8.5938q0.78125 6.25 5.6562 9.9531 4.8906 3.7188 12.703 3.7188 8.5938 0 12.891-3.9062t4.2969-10.938v-21.484q0-2.3438 0.78125-4.2969t2.3438-3.9062zm-10.938 14.453v7.8125q-2.3438-0.78125-4.5-1.375-2.1406-0.57812-7.2188-1.3594-5.8594-0.78125-7.625-2.7344-1.75-1.9531-1.75-4.6875 0-2.3438 1.75-4.1094 1.7656-1.75 5.2812-1.75t7.6094 1.9531q4.1094 1.9531 6.4531 6.25z"/>
     <path id="SimHei-114" d="m39.453 37.5q-7.4219 1.1719-12.5-2.1562-5.0781-3.3125-8.5938-11.516v-22.266h-7.8125v43.75h7.8125v-11.328q3.5156 6.25 8.7812 9.1719 5.2812 2.9375 12.312 2.9375z"/>
     <path id="SimHei-103" d="m46.875 38.672q-2.7344 0.78125-5.2812 0.96875-2.5312 0.20312-5.2656-0.57812 1.1719-1.1719 1.9531-2.9375 0.78125-1.75 0.78125-5.2656 0-6.6406-4.5-10.938-4.4844-4.2969-11.125-4.2969-1.5625 0-4.1094 0.57812-2.5312 0.59375-4.0938 1.375-1.1719-0.78125-1.5625-1.5625t-0.39062-1.9531q0-1.9531 2.7344-2.9375 2.7344-0.96875 9.7656-0.96875 11.328 0 15.422-3.125 4.1094-3.125 4.1094-7.8125 0-6.25-6.0625-9.1719-6.0469-2.9375-14.25-2.9375-10.547 0-15.625 2.7344t-5.0781 7.4219q0 2.3438 1.9531 4.6875t5.0781 3.9062q-2.3438 1.1719-3.7188 2.9219-1.3594 1.7656-1.3594 4.5 0 2.3438 1.75 4.0938 1.7656 1.7656 4.1094 2.9375-1.9531 1.9531-3.125 4.6875t-1.1719 5.8594q0 6.6406 4.4844 10.938 4.5 4.2969 11.141 4.2969 3.5156 0 6.0469-0.98438 2.5469-0.96875 4.5-2.9219 3.125 2.3438 6.25 3.3125 3.125 0.98438 6.6406 0.59375zm-15.625-7.8125q0 3.9062-1.9531 6.25t-5.8594 2.3438-5.8594-2.3438-1.9531-6.25 1.9531-6.25 5.8594-2.3438 5.8594 2.3438 1.9531 6.25zm6.6406-32.422q0 1.5625-1.7656 3.125-1.75 1.5625-8.7812 1.5625-1.5625 0-4.2969 0.1875-2.7344 0.20312-6.25 0.59375-3.125-1.1719-4.2969-2.7344t-1.1719-3.125q0-2.3438 3.125-3.9062t10.938-1.5625q6.6406 0 9.5625 1.7656 2.9375 1.75 2.9375 4.0938z"/>
     <path id="SimHei-105" d="m28.516 57.812h-7.8125v10.156h7.8125zm0-56.25h-7.8125v43.75h7.8125z"/>
     <path id="SimHei-110" d="m44.141 1.5625h-7.8125v28.125q0 4.6875-2.3438 7.4219t-6.25 2.7344q-5.0781 0-9.5781-5.2812-4.4844-5.2656-4.4844-13.078v-19.922h-7.8125v43.75h7.8125v-8.2031q3.125 4.2969 6.8281 6.6406 3.7188 2.3438 9.5781 2.3438 7.0312 0 10.547-3.9062t3.5156-9.7656z"/>
     <path id="SimHei-65289" d="m14.453-1.9531q0.39062-1.9531 8 2.5312 7.625 4.5 14.062 12.703 6.4531 8.2031 6.6406 21.094 0.20312 12.891-6.8281 22.453-7.0312 9.5781-14.266 14.453-7.2188 4.8906-7.4219 3.9062-0.1875-0.96875 5.4688-5.6562 5.6719-4.6875 10.938-12.703 5.2812-8 6.0625-20.109t-5.2812-21.297q-6.0469-9.1719-11.719-13.281-5.6562-4.0938-5.2656-6.0469z"/>
    </defs>
    <g transform="translate(171.51 148.85) rotate(-34) scale(.13 -.13)">
     <use xlink:href="#SimHei-23485"/>
     <use x="100" xlink:href="#SimHei-24230"/>
     <use x="200" xlink:href="#SimHei-65288"/>
     <use x="300" xlink:href="#SimHei-77"/>
     <use x="350" xlink:href="#SimHei-97"/>
     <use x="400" xlink:href="#SimHei-114"/>
     <use x="450" xlink:href="#SimHei-103"/>
     <use x="500" xlink:href="#SimHei-105"/>
     <use x="550" xlink:href="#SimHei-110"/>
     <use x="600" xlink:href="#SimHei-65289"/>
    </g>
   </g>
   <g id="PathCollection_1">
    <defs>
     <path id="m3d660cbd74" d="m-3 3 6-6m-6 0 6 6" stroke="#00f" stroke-width="1.5"/>
    </defs>
    <g clip-path="url(#pf9aacaf065)" fill="#0000ff" stroke="#0000ff" stroke-width="1.5">
     <use x="90" y="166.368" xlink:href="#m3d660cbd74"/>
     <use x="258" y="47.688" xlink:href="#m3d660cbd74"/>
    </g>
   </g>
   <g id="PathCollection_2">
    <defs>
     <path id="m6f49213ce3" d="m0 3c0.79561 0 1.5587-0.3161 2.1213-0.87868 0.56258-0.56258 0.87868-1.3257 0.87868-2.1213s-0.3161-1.5587-0.87868-2.1213c-0.56258-0.56258-1.3257-0.87868-2.1213-0.87868s-1.5587 0.3161-2.1213 0.87868c-0.56258 0.56258-0.87868 1.3257-0.87868 2.1213s0.3161 1.5587 0.87868 2.1213c0.56258 0.56258 1.3257 0.87868 2.1213 0.87868z" stroke="#000"/>
    </defs>
    <g clip-path="url(#pf9aacaf065)" fill="#ff0000" stroke="#000000">
     <use x="258" y="166.368" xlink:href="#m6f49213ce3"/>
     <use x="342" y="166.368" xlink:href="#m6f49213ce3"/>
    </g>
   </g>
  </g>
 </g>
 <defs>
  <clipPath id="pf9aacaf065">
   <rect x="64.8" y=".216" width="302.4" height="213.62"/>
  </clipPath>
 </defs>
</svg>
